<svg width="400" height="400" viewBox="0 0 400 400" fill="none" xmlns="http://www.w3.org/2000/svg">
<g clip-path="url(#clip0)">
<path fill-rule="evenodd" clip-rule="evenodd" d="M96 92.842C94.57 92.974 92.771 93.289 92.003 93.542C91.234 93.794 89.254 94.008 87.603 94.018C85.88 94.028 83.918 94.3 83 94.657C82.12 94.999 80.186 95.43 78.703 95.615C77.219 95.8 75.604 96.232 75.114 96.575C74.623 96.919 73.587 97.201 72.811 97.203C72.035 97.204 70.86 97.563 70.2 98C69.54 98.437 68.64 98.802 68.2 98.811C67.76 98.82 66.68 99.175 65.8 99.6C64.92 100.025 63.643 100.379 62.962 100.386C62.246 100.394 61.419 100.737 61 101.2C60.602 101.64 59.972 102 59.6 102C59.228 102 58.598 102.36 58.2 102.8C57.802 103.24 57.189 103.612 56.838 103.627C56.487 103.641 55.3 104.181 54.2 104.825C53.1 105.47 51.75 106.219 51.2 106.49C50.65 106.761 50.064 107.198 49.898 107.46C49.731 107.723 49.056 108.056 48.398 108.201C47.739 108.345 47.2 108.597 47.2 108.761C47.2 109.102 44.098 111.2 43.593 111.2C43.408 111.2 42.947 111.51 42.568 111.889C41.754 112.703 37.684 115.94 36.394 116.8C35.898 117.13 33.186 119.74 30.366 122.6C25.22 127.819 24.54 128.553 23.8 129.679C22.636 131.451 21.67 132.712 20.502 133.985C19.788 134.763 19.203 135.597 19.202 135.838C19.201 136.079 18.84 136.602 18.4 137C17.96 137.398 17.6 137.965 17.6 138.259C17.6 138.553 17.24 139.018 16.8 139.293C16.36 139.568 16 140.096 16 140.468C16 140.839 15.761 141.382 15.468 141.675C14.917 142.226 14.067 143.683 13.02 145.873C12.686 146.573 12.229 147.258 12.006 147.396C11.783 147.534 11.6 147.972 11.6 148.37C11.6 148.767 11.263 149.521 10.852 150.046C10.441 150.571 9.979 151.573 9.826 152.272C9.674 152.972 9.309 153.744 9.016 153.987C8.723 154.23 8.36 155.097 8.208 155.914C8.056 156.731 7.7 157.67 7.417 158C7.133 158.33 6.781 159.269 6.635 160.087C6.488 160.905 6.136 161.807 5.852 162.091C5.568 162.375 5.216 163.473 5.072 164.531C4.927 165.588 4.536 166.841 4.204 167.316C3.872 167.79 3.596 168.993 3.591 169.989C3.586 170.985 3.226 172.585 2.791 173.544C2.279 174.671 1.999 176.155 1.998 177.744C1.995 180.661 1.374 183.158 0.575 183.465C-0.321 183.809 -0.276 204.71 0.622 205.367C1.446 205.969 1.979 208.4 1.99 211.614C1.996 213.179 2.321 215.141 2.8 216.504C3.24 217.756 3.6 219.575 3.6 220.546C3.6 221.518 3.956 223.097 4.391 224.056C4.826 225.015 5.186 226.633 5.191 227.651C5.197 228.771 5.429 229.692 5.78 229.984C6.1 230.249 6.482 231.306 6.629 232.333C6.777 233.36 7.132 234.47 7.418 234.8C7.704 235.13 8.066 235.94 8.223 236.6C8.379 237.26 8.738 238.07 9.02 238.4C9.302 238.73 9.656 239.669 9.808 240.486C9.96 241.303 10.335 242.18 10.642 242.435C10.949 242.69 11.2 243.302 11.2 243.795C11.2 244.288 11.56 245.15 12 245.709C12.44 246.269 12.8 246.899 12.8 247.11C12.8 247.597 16.015 253.915 16.92 255.208C17.294 255.741 17.6 256.492 17.6 256.875C17.6 257.258 17.96 257.765 18.4 258C18.84 258.235 19.2 258.754 19.2 259.152C19.2 259.55 19.56 260.202 20 260.6C20.44 260.998 20.8 261.476 20.8 261.662C20.8 261.848 21.16 262.36 21.6 262.8C22.04 263.24 22.4 263.861 22.4 264.179C22.4 264.498 22.867 265.263 23.439 265.879C24.552 267.08 26.8 270.287 26.8 270.674C26.8 270.803 27.205 271.3 27.7 271.779C29.032 273.068 31.064 275.479 32.483 277.456C33.172 278.415 33.891 279.2 34.08 279.2C34.27 279.2 34.534 279.484 34.668 279.832C35.072 280.887 41.299 286.734 45.811 290.296C47.138 291.343 48.594 292.576 49.048 293.036C49.502 293.496 50.936 294.57 52.236 295.423C53.536 296.275 54.693 297.101 54.807 297.259C55.092 297.654 60.403 301.2 60.71 301.2C61.124 301.2 64.178 303.364 64.52 303.899C64.696 304.174 65.326 304.412 65.92 304.427C66.514 304.441 67.9 304.984 69 305.634C70.1 306.283 71.34 306.929 71.755 307.068C72.171 307.208 73.305 307.745 74.277 308.261C75.248 308.778 76.371 309.2 76.772 309.2C77.174 309.2 77.71 309.451 77.965 309.758C78.22 310.065 79.097 310.44 79.914 310.592C80.731 310.743 81.961 311.212 82.647 311.634C83.333 312.055 84.328 312.4 84.858 312.4C85.388 312.4 86.21 312.672 86.684 313.004C87.159 313.336 88.414 313.72 89.473 313.858C90.533 313.995 91.67 314.33 92 314.602C92.33 314.874 93.573 315.22 94.763 315.37C95.952 315.521 97.428 315.904 98.043 316.222C98.657 316.54 100.204 316.808 101.48 316.818C102.756 316.827 104.52 317.121 105.4 317.47C106.424 317.877 109.088 318.214 112.8 318.405C115.99 318.57 119.32 318.912 120.2 319.165C123.19 320.024 129.493 320.143 133.4 319.414C135.38 319.045 139.97 318.646 143.6 318.529C148.558 318.368 150.442 318.161 151.174 317.7C151.745 317.339 153.581 316.984 155.616 316.84C157.569 316.702 159.365 316.361 159.727 316.061C160.081 315.767 161.502 315.427 162.885 315.304C164.268 315.181 166.027 314.748 166.794 314.341C167.561 313.933 168.934 313.6 169.845 313.6C170.83 313.6 171.704 313.357 172 313C172.276 312.668 173.148 312.4 173.955 312.4C174.756 312.4 176.084 312.04 176.904 311.6C177.725 311.16 178.715 310.8 179.104 310.8C179.494 310.8 180.484 310.44 181.304 310C182.125 309.56 183.025 309.2 183.304 309.2C183.584 309.2 184.484 308.84 185.304 308.4C186.125 307.96 187.133 307.6 187.545 307.6C187.956 307.6 188.75 307.24 189.309 306.8C189.869 306.36 190.658 305.999 191.063 305.997C191.468 305.996 192.34 305.637 193 305.2C193.66 304.763 194.491 304.404 194.846 304.403C195.201 304.401 195.95 304.04 196.509 303.6C197.069 303.16 197.789 302.8 198.109 302.8C198.43 302.8 199.15 302.44 199.709 302C200.269 301.56 201 301.2 201.335 301.2C201.669 301.2 202.181 300.975 202.471 300.7C202.762 300.425 204.17 299.598 205.6 298.863C207.03 298.128 208.92 297.102 209.8 296.583C210.68 296.063 211.85 295.409 212.4 295.128C212.95 294.847 213.544 294.388 213.72 294.108C213.896 293.829 214.273 293.6 214.558 293.6C214.843 293.6 215.402 293.24 215.8 292.8C216.198 292.36 216.721 292 216.962 291.999C217.203 291.999 218.437 291.279 219.704 290.399C220.972 289.52 222.192 288.8 222.417 288.8C222.641 288.8 222.925 288.539 223.048 288.219C223.17 287.9 223.869 287.441 224.6 287.2C225.331 286.959 226.03 286.5 226.152 286.181C226.275 285.861 226.631 285.6 226.945 285.6C227.258 285.6 227.61 285.35 227.728 285.044C227.845 284.738 228.449 284.228 229.071 283.909C233.197 281.795 236.071 279.557 238.2 276.799C238.86 275.944 240.12 274.691 241 274.014C244.144 271.596 245.788 270.147 249.717 266.331C251.908 264.203 254.133 262.353 254.661 262.22C255.189 262.088 256.327 261.309 257.191 260.49C258.054 259.67 259.58 258.222 260.58 257.272C261.581 256.322 262.4 255.386 262.4 255.192C262.4 254.322 265.148 250.999 269.778 246.271C272.54 243.451 274.8 241.05 274.8 240.937C274.8 240.824 275.317 240.162 275.949 239.466C278.681 236.455 281.805 232.961 282.186 232.486C282.414 232.204 283.635 230.885 284.9 229.556C286.165 228.227 287.2 227.036 287.2 226.91C287.2 226.533 290.688 222.393 293.535 219.391C295.001 217.846 296.509 216.107 296.887 215.526C297.76 214.182 304.771 206.306 305.473 205.88C305.763 205.704 306 205.308 306 205C306 204.692 306.234 204.296 306.521 204.12C306.807 203.944 307.662 203.003 308.421 202.029C309.179 201.054 311.101 198.894 312.69 197.229C314.28 195.563 317.34 192.326 319.49 190.035C325.083 184.077 332.737 176.435 334.749 174.8C336.865 173.08 337.489 172.504 337.664 172.107C337.85 171.687 341.847 168.4 342.172 168.4C342.545 168.4 344.687 166.817 346.364 165.302C347.154 164.588 348.025 164.003 348.3 164.002C348.575 164.001 349.117 163.685 349.505 163.3C349.894 162.915 350.659 162.371 351.205 162.092C351.752 161.813 352.92 161.146 353.8 160.611C354.68 160.076 355.67 159.531 356 159.399C356.33 159.268 357.23 158.836 358 158.438C358.77 158.041 359.938 157.586 360.596 157.427C361.254 157.267 361.906 156.952 362.046 156.726C362.185 156.5 363.163 156.154 364.219 155.957C365.275 155.76 366.437 155.329 366.801 154.999C367.183 154.653 368.226 154.4 369.268 154.4C370.261 154.4 371.956 154.109 373.036 153.753C374.734 153.194 381.036 152.823 389.4 152.791C390.063 152.788 390.097 152.721 389.6 152.4C389.27 152.187 388.301 152.009 387.447 152.006C386.593 152.003 385.333 151.663 384.647 151.251C383.791 150.737 382.259 150.426 379.76 150.26C377.758 150.126 375.229 149.826 374.14 149.593C372.607 149.264 371.362 149.307 368.628 149.784C366.685 150.123 363.814 150.401 362.248 150.403C360.079 150.405 359.114 150.595 358.2 151.2C357.518 151.652 356.323 151.996 355.431 151.997C354.569 151.999 353.556 152.278 353.181 152.617C352.806 152.957 351.802 153.341 350.95 153.471C350.097 153.602 349.13 153.934 348.8 154.21C348.47 154.485 347.57 154.844 346.8 155.008C346.03 155.171 344.971 155.641 344.446 156.052C343.921 156.463 343.178 156.8 342.795 156.8C342.412 156.8 341.878 157.065 341.609 157.389C341.34 157.714 340.514 158.092 339.774 158.231C339.034 158.37 338.22 158.735 337.965 159.042C337.71 159.349 337.282 159.6 337.013 159.6C336.744 159.6 336.198 159.96 335.8 160.4C335.402 160.84 334.815 161.2 334.496 161.2C334.177 161.2 333.419 161.605 332.813 162.1C332.207 162.595 330.84 163.54 329.775 164.2C328.711 164.86 327.201 165.801 326.42 166.29C325.639 166.78 324.685 167.296 324.3 167.437C323.915 167.578 323.6 167.835 323.6 168.007C323.6 168.28 322.835 168.832 320.01 170.6C319.336 171.021 318.413 171.778 317.281 172.836C316.906 173.186 315.52 174.247 314.2 175.193C312.88 176.139 311.53 177.214 311.2 177.583C310.354 178.529 304.973 183.2 304.73 183.2C304.415 183.2 301.41 185.897 297.822 189.4C296.019 191.16 292.583 194.4 290.186 196.6C287.789 198.8 285.07 201.32 284.144 202.2C283.217 203.08 280.364 205.78 277.802 208.2C275.241 210.62 269.5 216.2 265.045 220.6C256.436 229.102 255.103 230.353 251.612 233.211C249.134 235.24 247.002 237.126 244.85 239.192C242.846 241.116 239.51 244.04 238.223 245C237.633 245.44 236.851 246.115 236.486 246.5C236.121 246.885 235.711 247.2 235.574 247.2C235.438 247.2 234.287 248.19 233.018 249.4C231.748 250.61 230.567 251.6 230.392 251.6C230.076 251.6 225.589 255.1 225.193 255.656C225.079 255.816 223.747 256.777 222.233 257.792C220.719 258.808 219.012 259.996 218.44 260.433C214.133 263.723 213.178 264.4 212.84 264.4C212.63 264.4 212.219 264.625 211.929 264.9C211.076 265.707 208.188 267.6 207.81 267.6C207.619 267.6 207.133 267.899 206.729 268.264C205.967 268.954 204.914 269.611 203.2 270.468C202.65 270.743 201.771 271.29 201.246 271.684C200.721 272.078 200.046 272.4 199.746 272.4C199.446 272.4 198.84 272.76 198.4 273.2C197.96 273.64 197.259 274 196.843 274C196.426 274 195.986 274.26 195.864 274.578C195.742 274.896 195.009 275.275 194.235 275.42C193.462 275.565 192.63 275.923 192.387 276.216C192.144 276.509 191.432 276.861 190.806 276.999C190.179 277.136 189.574 277.491 189.46 277.787C189.347 278.083 188.667 278.453 187.95 278.611C187.232 278.769 186.397 279.146 186.094 279.449C185.791 279.752 185.133 280 184.633 280C184.132 280 183.307 280.36 182.8 280.8C182.293 281.24 181.479 281.6 180.993 281.6C180.506 281.6 179.65 281.96 179.091 282.4C178.531 282.84 177.501 283.2 176.8 283.2C176.099 283.2 175.069 283.56 174.509 284C173.95 284.44 172.946 284.8 172.278 284.8C171.61 284.8 170.75 285.083 170.367 285.43C169.985 285.776 168.677 286.194 167.462 286.359C166.246 286.524 164.997 286.871 164.685 287.129C164.373 287.388 162.967 287.715 161.559 287.856C160.152 287.997 158.55 288.336 158 288.609C157.45 288.883 155.65 289.239 154 289.4C152.35 289.561 150.46 289.987 149.8 290.347C147.94 291.359 117.055 291.328 114.4 290.31C113.41 289.931 111.443 289.526 110.03 289.41C108.616 289.295 107.086 288.958 106.63 288.663C106.173 288.368 104.933 288.01 103.873 287.867C102.814 287.725 101.559 287.336 101.084 287.004C100.61 286.672 99.705 286.4 99.074 286.4C98.443 286.4 97.469 286.04 96.909 285.6C96.35 285.16 95.511 284.799 95.046 284.797C94.581 284.796 93.66 284.437 93 284C92.34 283.563 91.509 283.204 91.154 283.203C90.799 283.201 90.05 282.84 89.491 282.4C88.931 281.96 88.2 281.6 87.865 281.6C87.531 281.6 87.018 281.361 86.725 281.068C86.173 280.516 84.731 279.69 82.5 278.648C81.785 278.314 81.2 277.864 81.2 277.647C81.2 277.431 80.821 277.134 80.359 276.987C79.493 276.712 76.781 274.978 76.409 274.462C76.294 274.303 75.12 273.47 73.8 272.611C71.094 270.851 59.405 259.275 58.979 257.934C58.682 256.999 58.339 256.508 56.855 254.899C56.336 254.335 55.497 253.096 54.991 252.144C54.484 251.192 53.785 250.127 53.435 249.778C53.086 249.429 52.8 248.824 52.8 248.433C52.8 248.043 52.44 247.398 52 247C51.56 246.602 51.2 246.017 51.2 245.701C51.2 245.385 50.84 244.669 50.4 244.109C49.96 243.55 49.6 242.688 49.6 242.195C49.6 241.702 49.344 241.086 49.031 240.826C48.718 240.566 48.339 239.599 48.188 238.677C48.037 237.755 47.647 236.699 47.323 236.331C46.998 235.963 46.63 234.883 46.504 233.931C46.379 232.979 46.055 231.84 45.785 231.4C45.516 230.96 45.188 229.364 45.058 227.854C44.928 226.344 44.592 224.831 44.311 224.493C43.446 223.452 43.354 199.168 44.209 197.484C44.567 196.778 44.958 195.21 45.077 194C45.196 192.79 45.514 191.44 45.783 191C46.053 190.56 46.384 189.503 46.519 188.65C46.655 187.798 47.023 186.808 47.338 186.45C47.653 186.093 48.033 185.227 48.181 184.528C48.33 183.828 48.698 183.05 49 182.8C49.302 182.55 49.662 181.83 49.8 181.2C49.938 180.57 50.31 179.841 50.626 179.579C50.942 179.317 51.2 178.909 51.2 178.673C51.2 178.12 53.242 175.099 53.899 174.68C54.174 174.504 54.4 174.197 54.4 173.998C54.4 173.065 57.488 169.333 61.833 165.016C66.393 160.484 67.646 159.395 70.479 157.495C71.952 156.508 73.45 155.407 73.807 155.05C74.165 154.692 74.764 154.4 75.14 154.4C75.515 154.4 76.13 154.04 76.507 153.6C76.884 153.16 77.526 152.8 77.934 152.8C78.342 152.8 79.002 152.44 79.4 152C79.798 151.56 80.614 151.2 81.213 151.2C81.812 151.2 82.522 150.935 82.791 150.611C83.06 150.286 83.937 149.9 84.74 149.752C85.543 149.604 86.827 149.149 87.594 148.741C88.361 148.334 89.607 148 90.363 148C91.119 148 92.061 147.707 92.457 147.348C93.162 146.711 98.113 146.207 106.2 145.949C110.2 145.822 116.281 146.573 117.109 147.295C117.489 147.627 118.457 148.016 119.26 148.16C120.063 148.304 120.93 148.675 121.187 148.985C121.445 149.295 122.221 149.673 122.912 149.825C124.222 150.112 126.368 151.438 126.92 152.3C127.096 152.575 127.428 152.8 127.658 152.8C128.726 152.8 133.745 157.607 135.6 160.406C135.93 160.904 136.605 161.807 137.1 162.413C137.595 163.02 138 163.731 138 163.995C138 164.258 138.36 164.931 138.8 165.491C139.24 166.05 139.6 166.822 139.6 167.205C139.6 167.588 139.85 168.11 140.157 168.364C140.463 168.618 140.837 169.675 140.988 170.713C141.139 171.751 141.541 173.033 141.882 173.563C142.834 175.043 142.837 185.708 141.887 187.48C141.509 188.184 141.2 189.309 141.2 189.98C141.2 190.651 140.877 191.523 140.483 191.917C140.088 192.312 139.513 193.244 139.205 193.989C138.488 195.72 133.118 201.108 131.391 201.83C130.666 202.132 130.012 202.521 129.937 202.694C129.684 203.273 125.537 205.2 124.543 205.2C124.003 205.2 122.996 205.492 122.306 205.849C120.169 206.954 112.917 206.855 111.442 205.7C110.809 205.205 109.888 204.8 109.395 204.8C108.902 204.8 108.274 204.53 108 204.2C107.726 203.87 107.261 203.6 106.967 203.6C106.328 203.6 102.125 200.248 101.027 198.863C99.28 196.66 96.896 192.838 96.645 191.837C96.497 191.249 96.198 190.877 95.981 191.012C95.292 191.438 95.755 201.201 96.53 202.6C96.896 203.26 97.196 204.271 97.198 204.846C97.199 205.421 97.521 206.321 97.914 206.846C98.307 207.371 99.106 208.79 99.689 210C100.634 211.958 102.25 213.766 107.748 219.013C108.217 219.461 109.5 220.271 110.6 220.813C111.7 221.356 113.029 222.115 113.554 222.5C114.079 222.885 114.964 223.2 115.522 223.2C116.08 223.2 116.871 223.502 117.278 223.871C117.793 224.336 119.088 224.62 121.51 224.798C123.429 224.939 125.393 225.267 125.874 225.527C126.948 226.109 134.548 226.163 135.607 225.596C136.022 225.374 137.88 225.039 139.735 224.851C141.707 224.651 143.498 224.237 144.044 223.854C144.558 223.494 145.585 223.2 146.326 223.2C147.068 223.2 148.131 222.841 148.691 222.4C149.25 221.96 149.944 221.6 150.233 221.6C150.878 221.6 154.323 219.793 155.213 218.988C155.57 218.665 156.155 218.4 156.512 218.4C156.868 218.4 157.304 218.169 157.48 217.886C157.656 217.603 158.79 216.719 160 215.922C161.21 215.124 162.767 213.961 163.461 213.336C166.532 210.569 167.079 210.043 168.4 208.582C169.17 207.731 169.894 206.847 170.008 206.617C170.746 205.142 172.139 203.2 172.46 203.2C172.67 203.2 173.03 202.66 173.26 202C173.49 201.34 173.826 200.8 174.007 200.8C174.188 200.8 174.458 200.248 174.606 199.573C174.754 198.898 175.111 198.256 175.398 198.145C175.686 198.035 176.034 197.345 176.171 196.612C176.309 195.88 176.682 195.064 177 194.8C177.318 194.536 177.696 193.663 177.84 192.86C177.984 192.057 178.324 191.13 178.597 190.8C178.869 190.47 179.203 189.344 179.339 188.297C179.475 187.25 179.839 185.99 180.149 185.497C180.458 185.004 180.836 183.263 180.987 181.628C181.139 179.994 181.518 177.204 181.831 175.428C182.578 171.18 182.564 165.765 181.798 163.596C181.468 162.658 181.084 160.07 180.945 157.845C180.792 155.384 180.485 153.558 180.16 153.183C179.867 152.844 179.507 151.494 179.36 150.183C179.214 148.872 178.872 147.53 178.601 147.2C178.33 146.87 178.002 145.903 177.871 145.05C177.741 144.198 177.377 143.208 177.062 142.85C176.747 142.493 176.357 141.58 176.196 140.823C176.034 140.065 175.654 139.197 175.351 138.894C175.048 138.591 174.8 137.946 174.8 137.46C174.8 136.975 174.44 136.27 174 135.893C173.56 135.516 173.2 134.874 173.2 134.466C173.2 134.058 172.84 133.398 172.4 133C171.96 132.602 171.6 132.066 171.6 131.81C171.6 131.554 170.88 130.379 170 129.2C169.12 128.021 168.4 126.897 168.4 126.703C168.4 125.481 158.542 114.395 155.4 112.083C154.3 111.274 153.04 110.276 152.6 109.864C152.16 109.453 151.35 108.824 150.8 108.468C150.25 108.111 149.656 107.59 149.48 107.31C149.304 107.029 148.899 106.8 148.58 106.8C148.261 106.8 147.669 106.485 147.265 106.1C146.238 105.122 145.269 104.513 143.3 103.609C142.365 103.18 141.6 102.642 141.6 102.414C141.6 102.186 141.178 102 140.662 102C140.146 102 139.398 101.64 139 101.2C138.602 100.76 137.943 100.4 137.537 100.4C137.13 100.4 136.125 100.04 135.304 99.6C134.484 99.16 133.518 98.8 133.16 98.8C132.801 98.8 132.05 98.44 131.491 98C130.931 97.56 129.957 97.2 129.326 97.2C128.695 97.2 127.798 96.934 127.334 96.609C126.87 96.284 125.435 95.902 124.145 95.762C122.855 95.621 121.38 95.243 120.867 94.922C120.311 94.574 118.183 94.208 115.607 94.018C113.228 93.842 111.038 93.541 110.741 93.349C110.039 92.896 99.366 92.529 96 92.842ZM391.2 154C391.982 154.506 393.088 154.506 393.4 154C393.548 153.76 393.039 153.602 392.124 153.606C390.993 153.611 390.755 153.712 391.2 154Z" fill="#1C7AC0"/>
<path fill-rule="evenodd" clip-rule="evenodd" d="M123.673 80.674C123.384 80.79 120.904 81.09 118.163 81.342C111.511 81.953 111.906 82.832 119.4 84.095C120.72 84.318 122.836 84.838 124.102 85.25C125.367 85.663 126.897 86.006 127.502 86.013C128.106 86.02 128.932 86.277 129.337 86.584C129.742 86.891 130.822 87.268 131.737 87.421C132.652 87.575 133.755 87.948 134.189 88.25C134.623 88.553 135.274 88.8 135.635 88.8C135.996 88.8 136.75 89.16 137.309 89.6C137.869 90.04 138.675 90.4 139.101 90.4C139.527 90.4 140.202 90.76 140.6 91.2C140.998 91.64 141.748 92 142.266 92C142.784 92 143.516 92.36 143.893 92.8C144.27 93.24 144.914 93.6 145.326 93.6C145.737 93.6 146.531 93.96 147.091 94.4C147.65 94.84 148.326 95.2 148.592 95.2C148.858 95.2 149.402 95.56 149.8 96C150.198 96.44 150.683 96.8 150.878 96.8C151.353 96.8 152.938 97.939 158.19 102.057C165.177 107.533 171.455 114.471 176.418 122.2C178.891 126.052 179.138 126.459 179.687 127.6C179.952 128.15 180.49 129.029 180.884 129.554C181.278 130.079 181.6 130.822 181.6 131.205C181.6 131.588 181.852 132.111 182.161 132.367C182.469 132.623 182.835 133.32 182.975 133.916C183.114 134.512 183.47 135.54 183.766 136.2C185.501 140.063 185.923 141.138 186.197 142.4C186.365 143.17 186.749 144.155 187.051 144.589C187.353 145.023 187.6 146.051 187.6 146.874C187.6 147.697 187.96 149.284 188.4 150.4C188.841 151.519 189.2 153.373 189.2 154.531C189.2 155.686 189.495 157.705 189.857 159.016C190.622 161.794 190.739 174.761 190.019 176.943C189.786 177.648 189.432 179.957 189.232 182.075C189.031 184.194 188.649 186.335 188.382 186.834C188.115 187.333 187.757 188.745 187.587 189.971C187.269 192.261 186.456 194.903 185.145 197.911C184.735 198.852 184.4 199.955 184.4 200.362C184.4 200.769 184.13 201.326 183.8 201.6C183.47 201.874 183.2 202.412 183.2 202.795C183.2 203.178 182.851 203.936 182.425 204.478C181.998 205.02 181.525 205.958 181.373 206.564C181.221 207.169 180.85 207.759 180.549 207.875C180.247 207.991 180 208.501 180 209.009C180 209.518 179.775 210.024 179.5 210.135C179.184 210.263 179.241 210.348 179.656 210.368C180.854 210.426 188.82 201.262 191.972 196.2C192.931 194.66 194.05 192.912 194.458 192.316C194.866 191.72 195.2 190.979 195.2 190.67C195.2 190.361 195.56 189.65 196 189.091C196.44 188.531 196.8 187.868 196.8 187.616C196.8 187.364 197.141 186.493 197.558 185.679C198.98 182.905 200 180.38 200 179.633C200 179.223 200.356 178.103 200.791 177.144C201.226 176.185 201.586 174.806 201.591 174.08C201.596 173.354 201.878 172.224 202.217 171.568C204.267 167.603 204.27 143.616 202.221 138.713C201.88 137.895 201.6 136.718 201.6 136.097C201.6 135.477 201.24 134.263 200.8 133.4C200.36 132.537 199.999 131.374 199.997 130.815C199.996 130.257 199.637 129.26 199.2 128.6C198.763 127.94 198.404 127.023 198.403 126.561C198.401 126.1 198.04 125.307 197.6 124.8C197.15 124.281 196.8 123.303 196.8 122.565C196.8 120.727 196.303 119.646 194.61 117.8C193.804 116.92 192.363 115.021 191.41 113.579C187.481 107.642 182.254 101.93 176.554 97.348C170.284 92.308 166.505 89.991 159.2 86.71C158.21 86.265 156.89 85.654 156.268 85.351C155.645 85.048 154.938 84.8 154.697 84.8C154.456 84.8 153.289 84.133 152.105 83.317L149.951 81.833L143.684 81.52C140.238 81.348 136.436 81.025 135.235 80.803C132.998 80.39 124.618 80.296 123.673 80.674ZM100.5 92.694C101.545 92.776 103.255 92.776 104.3 92.694C105.345 92.612 104.49 92.544 102.4 92.544C100.31 92.544 99.455 92.612 100.5 92.694ZM183.8 92.8C183.664 93.02 183.74 93.2 183.968 93.2C184.421 93.2 192.4 101.127 192.4 101.578C192.4 101.73 193.036 102.562 193.812 103.427C195.14 104.905 199.963 111.887 200.564 113.2C200.715 113.53 201.271 114.52 201.8 115.4C202.329 116.28 203.171 117.9 203.67 119C204.169 120.1 204.987 121.775 205.489 122.721C205.99 123.668 206.4 124.703 206.4 125.023C206.4 125.342 206.76 126.275 207.2 127.096C207.64 127.916 208.001 128.951 208.002 129.394C208.004 129.837 208.273 130.714 208.6 131.342C208.928 131.97 209.365 133.535 209.572 134.82C209.779 136.105 210.147 137.528 210.39 137.981C210.633 138.435 211.007 140.65 211.221 142.903C211.435 145.156 211.78 147.81 211.988 148.8C212.609 151.765 212.491 159.685 211.8 161.338C211.425 162.235 211.2 164.06 211.2 166.197C211.2 168.595 210.96 170.302 210.4 171.896C209.96 173.148 209.6 174.667 209.6 175.271C209.6 175.876 209.24 177.284 208.8 178.4C208.36 179.516 207.999 180.828 207.997 181.315C207.996 181.802 207.637 182.74 207.2 183.4C206.763 184.06 206.404 184.924 206.403 185.321C206.401 185.717 206.055 186.707 205.632 187.521C205.21 188.334 204.02 190.75 202.988 192.888C201.956 195.026 200.861 196.983 200.556 197.237C200.25 197.49 200 197.953 200 198.265C200 198.808 198.531 201.154 197.895 201.627C197.727 201.752 197.007 202.768 196.295 203.885C194.064 207.384 185.048 217.155 183.545 217.702C183.152 217.845 183.12 218.029 183.431 218.361C183.755 218.707 184.106 218.633 184.831 218.066C185.364 217.65 186.205 217.183 186.7 217.028C187.195 216.873 187.6 216.621 187.6 216.468C187.6 216.315 188.79 215.292 190.244 214.195C198.326 208.096 206.643 198.016 210.75 189.344C211.181 188.433 211.729 187.568 211.967 187.42C212.205 187.273 212.4 186.753 212.4 186.265C212.4 185.777 212.652 185.018 212.961 184.577C213.269 184.137 213.737 182.977 214 182C214.263 181.023 214.731 179.863 215.039 179.423C215.348 178.982 215.6 178.24 215.6 177.773C215.6 177.306 216.034 176.42 216.564 175.803C217.571 174.631 217.622 174.402 218.399 167.6C219.069 161.738 218.75 145.187 217.925 143C217.593 142.12 217.21 140.307 217.074 138.972C216.938 137.637 216.552 136.017 216.216 135.372C215.88 134.727 215.604 133.747 215.602 133.194C215.601 132.641 215.24 131.516 214.8 130.696C214.36 129.875 213.999 128.887 213.997 128.501C213.996 128.116 213.637 127.26 213.2 126.6C212.763 125.94 212.404 125.006 212.403 124.524C212.401 124.042 212.243 123.55 212.052 123.432C211.86 123.314 211.005 121.86 210.152 120.202C207.804 115.64 207.455 115.042 206.165 113.357C205.509 112.5 204.439 110.99 203.786 110C203.134 109.011 200.06 105.681 196.956 102.6C190.912 96.602 190.663 96.378 189.175 95.596C188.639 95.314 188.056 94.839 187.88 94.542C187.704 94.244 187.306 94 186.994 94C186.683 94 186.235 93.64 186 93.2C185.55 92.36 184.222 92.118 183.8 92.8ZM95.1 146.682C95.595 146.778 96.405 146.778 96.9 146.682C97.395 146.587 96.99 146.509 96 146.509C95.01 146.509 94.605 146.587 95.1 146.682ZM113.7 146.676C114.085 146.776 114.715 146.776 115.1 146.676C115.485 146.575 115.17 146.493 114.4 146.493C113.63 146.493 113.315 146.575 113.7 146.676ZM363.905 150.283C364.402 150.379 365.122 150.375 365.505 150.275C365.887 150.175 365.48 150.096 364.6 150.101C363.72 150.105 363.407 150.187 363.905 150.283ZM384.976 151.37C385.404 151.717 386.214 151.982 386.776 151.959C387.718 151.921 387.7 151.894 386.565 151.623C385.886 151.461 385.076 151.196 384.765 151.034C384.454 150.873 384.549 151.024 384.976 151.37ZM385.705 153.087C386.314 153.179 387.214 153.177 387.705 153.082C388.197 152.987 387.7 152.911 386.6 152.914C385.5 152.917 385.097 152.995 385.705 153.087ZM180.909 157.6C180.909 158.59 180.987 158.995 181.082 158.5C181.178 158.005 181.178 157.195 181.082 156.7C180.987 156.205 180.909 156.61 180.909 157.6ZM114.291 206.689C115.001 206.777 116.261 206.779 117.091 206.692C117.921 206.605 117.34 206.533 115.8 206.531C114.26 206.529 113.581 206.6 114.291 206.689ZM142.291 291.089C143.001 291.177 144.261 291.179 145.091 291.092C145.921 291.005 145.34 290.933 143.8 290.931C142.26 290.929 141.581 291 142.291 291.089ZM113.9 318.682C114.395 318.778 115.205 318.778 115.7 318.682C116.195 318.587 115.79 318.509 114.8 318.509C113.81 318.509 113.405 318.587 113.9 318.682ZM140.3 318.682C140.795 318.778 141.605 318.778 142.1 318.682C142.595 318.587 142.19 318.509 141.2 318.509C140.21 318.509 139.805 318.587 140.3 318.682Z" fill="#2EC0F4"/>
</g>
<defs>
<clipPath id="clip0">
<rect width="400" height="400" fill="white"/>
</clipPath>
</defs>
</svg>
